<svg width="564" height="288" viewBox="0 0 564 288" xmlns="http://www.w3.org/2000/svg"><title>EMPOWER_rgb_logo</title><g fill="none" fill-rule="evenodd"><g id="Group" fill="#003087"><path d="M0 158.7h53.6v13.9h-38V187H49v13.9H15.5v14.9H54v13.9H0v-71zM66.4 158.7h16.8l18.7 30 18.7-30h16.8v71h-15.5v-46.4l-20 30.3h-.4l-19.8-30v46.1H66.4v-71zM152.4 158.7h29c16.9 0 27.2 10 27.2 24.5v.2c0 16.4-12.8 25-28.7 25H168v21.3h-15.6v-71zm28 35.8c7.8 0 12.4-4.7 12.4-10.8v-.2c0-7-4.9-10.8-12.7-10.8H168v21.7h12.4v.1zM214.7 194.4v-.2c0-20.2 15.9-36.7 37.8-36.7s37.6 16.3 37.6 36.5v.2c0 20.2-15.9 36.7-37.8 36.7-21.8 0-37.6-16.3-37.6-36.5zm59.2 0v-.2c0-12.2-8.9-22.3-21.5-22.3s-21.3 9.9-21.3 22.1v.2c0 12.2 8.9 22.3 21.5 22.3s21.3-10 21.3-22.1zM292 158.7h16.7l14.7 48.1 15.9-48.3h13.4l15.9 48.3 14.7-48.1h16.3l-24.2 71.5h-13.6l-16-46.5-16 46.5h-13.6L292 158.7zM407.7 158.7h53.6v13.9h-38V187h33.5v13.9h-33.5v14.9h38.5v13.9h-54.1v-71zM474.1 158.7h32.5c9 0 16 2.5 20.7 7.2 4 4 6.1 9.5 6.1 16.2v.2c0 11.5-6.2 18.7-15.2 22l17.3 25.4h-18.3L502 206.9h-12.3v22.7h-15.6v-70.9zm31.4 34.5c7.6 0 12-4.1 12-10v-.2c0-6.7-4.7-10.1-12.3-10.1h-15.5v20.4h15.8v-.1z" id="Shape"/></g><g id="Group" fill="#BA0C2F"><path d="M535.4 17.9C423.5 40.2 414.2-9.3 318.8 1.6l-41.9 21.1c99-11.2 106.3 48.3 240.9 11.2 6.2-1.7 12-3.2 17.7-4.5V17.9h-.1z" id="Shape"/><path d="M535.4 42.5c-16.4 1.9-35.1 5.5-56.9 11.2-137.2 35.9-140.5-22-242.8-10.3l-41.9 21.1c99-11.2 106.3 48.3 240.9 11.2 43.9-12.1 75.3-14.9 100.8-13.4V42.5h-.1z" id="Shape"/><path d="M535.4 88.4c-32.9-7.3-70.8-11.1-140 7-137.2 35.9-140.5-22-242.8-10.3l-41.9 21.1c99-11.2 106.3 48.3 240.9 11.2 99.7-27.5 134.5-7.2 183.8 3v-32z" id="Shape"/></g><g id="Group" fill="#768692"><path d="M233.5 256.3h13.7c3.9 0 6.9 1.1 8.9 3.1 1.6 1.7 2.6 4 2.6 6.6v.1c0 5.1-3 8.1-7.3 9.3l8.3 11.6h-6.4l-7.6-10.7h-6.8V287h-5.4v-30.7zm13.4 15.3c3.9 0 6.3-2 6.3-5.1v-.1c0-3.3-2.4-5.1-6.4-5.1h-7.9v10.3h8zM266.6 256.3h22.8v4.8H272v8h15.4v4.8H272v8.3h17.6v4.8h-23v-30.7zM305 261.3h-9.8v-5h25v5h-9.8v25.8H305v-25.8zM327.5 256.3h5.4v30.8h-5.4v-30.8zM342.5 256.3h13.7c3.9 0 6.9 1.1 8.9 3.1 1.6 1.7 2.6 4 2.6 6.6v.1c0 5.1-3 8.1-7.3 9.3l8.3 11.6h-6.4l-7.6-10.7h-6.8V287h-5.4v-30.7zm13.3 15.3c3.9 0 6.3-2 6.3-5.1v-.1c0-3.3-2.4-5.1-6.4-5.1h-7.9v10.3h8zM375.6 256.3h22.8v4.8H381v8h15.4v4.8H381v8.3h17.6v4.8h-23v-30.7zM406.4 256.3h5.8l9.4 14.6 9.4-14.6h5.8v30.8h-5.4V265l-9.7 14.5h-.2l-9.6-14.4v22h-5.3v-30.8h-.2zM445.8 256.3h22.8v4.8h-17.4v8h15.4v4.8h-15.4v8.3h17.6v4.8h-23v-30.7zM476.6 256.3h5l16.5 21.3v-21.3h5.3v30.8h-4.5l-17-21.9v21.9h-5.3v-30.8zM520.2 261.3h-9.8v-5h25v5h-9.8v25.8h-5.5v-25.8h.1z" id="Shape"/></g><g fill="#768692"><path d="M546.6 257.2h-3.5v-1.1h8.2v1.1h-3.5v9.4h-1.2v-9.4z" id="Shape"/><path d="M553.5 256.1h1.2l3.8 5.7 3.8-5.7h1.2v10.5h-1.2v-8.5l-3.8 5.6h-.1l-3.8-5.6v8.5h-1.1v-10.5z"/></g></g></svg>